HIERARCHY
ROOT Hips
{
	OFFSET 0.000000 83.214638 0.000000
	CHANNELS 6 Xposition Yposition Zposition Xrotation Yrotation Zrotation
	JOINT Pelvis
	{
		OFFSET 0.000000 0.000000 0.000000
		CHANNELS 3 Xrotation Yrotation Zrotation
		JOINT LeftUpLeg
		{
			OFFSET 8.479700 -4.795502 -0.379100
			CHANNELS 3 Xrotation Yrotation Zrotation
			JOINT LeftLeg
			{
				OFFSET 0.024144 -32.555107 0.112900
				CHANNELS 3 Xrotation Yrotation Zrotation
				JOINT LeftFoot
				{
					OFFSET -0.024144 -32.638630 -3.012600
					CHANNELS 3 Xrotation Yrotation Zrotation
					JOINT LeftToeBase
					{
						OFFSET 0.970200 -13.225400 11.864200
						CHANNELS 3 Xrotation Yrotation Zrotation
						End Site
						{
							OFFSET 0.000000 12.319262 0.000000
						}
					}
					JOINT LFootTongue
					{
						OFFSET 1.142400 -1.059800 6.665200
						CHANNELS 3 Xrotation Yrotation Zrotation
						End Site
						{
							OFFSET 0.000000 12.319262 0.000000
						}
					}
				}
				JOINT LeftPantLeg
				{
					OFFSET 0.918482 -16.533964 -2.284700
					CHANNELS 3 Xrotation Yrotation Zrotation
					End Site
					{
						OFFSET 0.350399 24.744368 0.000000
					}
				}
			}
		}
		JOINT RightUpLeg
		{
			OFFSET -8.479700 -4.795502 -0.379100
			CHANNELS 3 Xrotation Yrotation Zrotation
			JOINT RightLeg
			{
				OFFSET -0.023144 -32.555092 0.112900
				CHANNELS 3 Xrotation Yrotation Zrotation
				JOINT RightFoot
				{
					OFFSET 0.023144 -32.638641 -3.012700
					CHANNELS 3 Xrotation Yrotation Zrotation
					JOINT RightToeBase
					{
						OFFSET -0.970200 -13.225400 11.864200
						CHANNELS 3 Xrotation Yrotation Zrotation
						End Site
						{
							OFFSET 0.000000 12.319244 0.000000
						}
					}
					JOINT RFootTongue
					{
						OFFSET -1.142200 -1.059800 6.665200
						CHANNELS 3 Xrotation Yrotation Zrotation
						End Site
						{
							OFFSET 0.000000 12.319243 0.000000
						}
					}
				}
				JOINT RightPantLeg
				{
					OFFSET -0.919482 -16.533978 -2.284800
					CHANNELS 3 Xrotation Yrotation Zrotation
					End Site
					{
						OFFSET -0.350400 24.744419 0.000000
					}
				}
			}
		}
	}
	JOINT Spine
	{
		OFFSET 0.000000 7.722000 1.166200
		CHANNELS 3 Xrotation Yrotation Zrotation
		JOINT Spine1
		{
			OFFSET 0.000000 12.024101 0.248800
			CHANNELS 3 Xrotation Yrotation Zrotation
			JOINT Spine2
			{
				OFFSET 0.000000 11.502998 -0.491200
				CHANNELS 3 Xrotation Yrotation Zrotation
				JOINT Neck
				{
					OFFSET 0.000000 18.430702 -3.123100
					CHANNELS 3 Xrotation Yrotation Zrotation
					JOINT Head
					{
						OFFSET 0.000000 9.051102 1.034000
						CHANNELS 3 Xrotation Yrotation Zrotation
						JOINT HairB
						{
							OFFSET 0.208400 24.786102 24.822300
							CHANNELS 3 Xrotation Yrotation Zrotation
							End Site
							{
								OFFSET 0.000000 32.263779 0.000000
							}
						}
						JOINT HairA
						{
							OFFSET -7.081100 24.428299 23.196600
							CHANNELS 3 Xrotation Yrotation Zrotation
							End Site
							{
								OFFSET 0.000000 32.263779 0.000000
							}
						}
						JOINT Hat
						{
							OFFSET 16.728800 15.048294 -15.439601
							CHANNELS 3 Xrotation Yrotation Zrotation
							End Site
							{
								OFFSET 0.000000 32.263779 0.000000
							}
						}
					}
				}
				JOINT LeftShoulder
				{
					OFFSET 6.197800 13.665199 -4.064700
					CHANNELS 3 Xrotation Yrotation Zrotation
					JOINT LeftArm
					{
						OFFSET 7.778100 -0.187103 -1.709300
						CHANNELS 3 Xrotation Yrotation Zrotation
						JOINT LeftForeArm
						{
							OFFSET 22.049376 0.000000 0.000000
							CHANNELS 3 Xrotation Yrotation Zrotation
							JOINT LeftHand
							{
								OFFSET 23.009392 0.000000 0.000000
								CHANNELS 3 Xrotation Yrotation Zrotation
								JOINT LeftHandThumb1
								{
									OFFSET 3.507191 -2.063065 3.133727
									CHANNELS 3 Xrotation Yrotation Zrotation
									JOINT LeftHandThumb2
									{
										OFFSET 3.101337 -1.790558 1.790558
										CHANNELS 3 Xrotation Yrotation Zrotation
										JOINT LeftHandThumb3
										{
											OFFSET 3.058640 -1.765907 1.765906
											CHANNELS 3 Xrotation Yrotation Zrotation
											End Site
											{
												OFFSET -0.415260 3.926476 -0.049563
											}
										}
									}
								}
								JOINT LeftHandIndex1
								{
									OFFSET 11.334419 -0.901459 3.706815
									CHANNELS 3 Xrotation Yrotation Zrotation
									JOINT LeftHandIndex2
									{
										OFFSET 3.283112 0.000000 0.000000
										CHANNELS 3 Xrotation Yrotation Zrotation
										JOINT LeftHandIndex3
										{
											OFFSET 3.323853 0.000000 0.000000
											CHANNELS 3 Xrotation Yrotation Zrotation
											End Site
											{
												OFFSET -1.135597 3.097809 0.402452
											}
										}
									}
								}
								JOINT LeftHandMiddle1
								{
									OFFSET 11.335861 0.000000 0.000000
									CHANNELS 3 Xrotation Yrotation Zrotation
									JOINT LeftHandMiddle2
									{
										OFFSET 3.410492 0.000000 0.000000
										CHANNELS 3 Xrotation Yrotation Zrotation
										JOINT LeftHandMiddle3
										{
											OFFSET 3.312172 0.000000 0.000000
											CHANNELS 3 Xrotation Yrotation Zrotation
											End Site
											{
												OFFSET -1.150200 3.080154 0.400270
											}
										}
									}
								}
								JOINT LeftHandRing1
								{
									OFFSET 11.514786 -0.013176 -3.003090
									CHANNELS 3 Xrotation Yrotation Zrotation
									JOINT LeftHandRing2
									{
										OFFSET 3.053307 0.000000 0.000000
										CHANNELS 3 Xrotation Yrotation Zrotation
										JOINT LeftHandRing3
										{
											OFFSET 3.295807 0.000000 0.000000
											CHANNELS 3 Xrotation Yrotation Zrotation
											End Site
											{
												OFFSET -1.281006 3.013344 0.375733
											}
										}
									}
								}
								JOINT LeftHandPinky1
								{
									OFFSET 10.518692 -0.960396 -5.730441
									CHANNELS 3 Xrotation Yrotation Zrotation
									JOINT LeftHandPinky2
									{
										OFFSET 2.861649 0.000000 0.000000
										CHANNELS 3 Xrotation Yrotation Zrotation
										JOINT LeftHandPinky3
										{
											OFFSET 2.863380 0.000000 0.000000
											CHANNELS 3 Xrotation Yrotation Zrotation
											End Site
											{
												OFFSET -0.843597 2.711159 0.369971
											}
										}
									}
								}
							}
							JOINT LSleeve
							{
								OFFSET 6.676277 -0.344902 -1.011730
								CHANNELS 3 Xrotation Yrotation Zrotation
								End Site
								{
									OFFSET 0.000000 14.885353 0.000000
								}
							}
						}
					}
				}
				JOINT RightShoulder
				{
					OFFSET -6.197800 13.665199 -4.064700
					CHANNELS 3 Xrotation Yrotation Zrotation
					JOINT RightArm
					{
						OFFSET -7.778100 -0.187103 -1.709300
						CHANNELS 3 Xrotation Yrotation Zrotation
						JOINT RightForeArm
						{
							OFFSET -22.049376 0.000000 0.000000
							CHANNELS 3 Xrotation Yrotation Zrotation
							JOINT RightHand
							{
								OFFSET -23.009392 0.000000 0.000000
								CHANNELS 3 Xrotation Yrotation Zrotation
								JOINT RightHandThumb1
								{
									OFFSET -3.507191 -2.063065 3.133727
									CHANNELS 3 Xrotation Yrotation Zrotation
									JOINT RightHandThumb2
									{
										OFFSET -3.101337 -1.790558 1.790558
										CHANNELS 3 Xrotation Yrotation Zrotation
										JOINT RightHandThumb3
										{
											OFFSET -3.058640 -1.765907 1.765906
											CHANNELS 3 Xrotation Yrotation Zrotation
											End Site
											{
												OFFSET 0.415260 3.926476 -0.049563
											}
										}
									}
								}
								JOINT RightHandIndex1
								{
									OFFSET -11.334419 -0.901459 3.706815
									CHANNELS 3 Xrotation Yrotation Zrotation
									JOINT RightHandIndex2
									{
										OFFSET -3.283112 0.000000 0.000000
										CHANNELS 3 Xrotation Yrotation Zrotation
										JOINT RightHandIndex3
										{
											OFFSET -3.323853 0.000000 0.000000
											CHANNELS 3 Xrotation Yrotation Zrotation
											End Site
											{
												OFFSET 1.135597 3.097809 0.402452
											}
										}
									}
								}
								JOINT RightHandMiddle1
								{
									OFFSET -11.335861 0.000000 0.000000
									CHANNELS 3 Xrotation Yrotation Zrotation
									JOINT RightHandMiddle2
									{
										OFFSET -3.410492 0.000000 0.000000
										CHANNELS 3 Xrotation Yrotation Zrotation
										JOINT RightHandMiddle3
										{
											OFFSET -3.312172 0.000000 0.000000
											CHANNELS 3 Xrotation Yrotation Zrotation
											End Site
											{
												OFFSET 1.150200 3.080154 0.400270
											}
										}
									}
								}
								JOINT RightHandRing1
								{
									OFFSET -11.514786 -0.013176 -3.003090
									CHANNELS 3 Xrotation Yrotation Zrotation
									JOINT RightHandRing2
									{
										OFFSET -3.053307 0.000000 0.000000
										CHANNELS 3 Xrotation Yrotation Zrotation
										JOINT RightHandRing3
										{
											OFFSET -3.295807 0.000000 0.000000
											CHANNELS 3 Xrotation Yrotation Zrotation
											End Site
											{
												OFFSET 1.281006 3.013344 0.375733
											}
										}
									}
								}
								JOINT RightHandPinky1
								{
									OFFSET -10.518692 -0.960396 -5.730441
									CHANNELS 3 Xrotation Yrotation Zrotation
									JOINT RightHandPinky2
									{
										OFFSET -2.861649 0.000000 0.000000
										CHANNELS 3 Xrotation Yrotation Zrotation
										JOINT RightHandPinky3
										{
											OFFSET -2.863380 0.000000 0.000000
											CHANNELS 3 Xrotation Yrotation Zrotation
											End Site
											{
												OFFSET 0.843597 2.711159 0.369971
											}
										}
									}
								}
							}
							JOINT RSleeve
							{
								OFFSET -6.676277 -0.344902 -1.011730
								CHANNELS 3 Xrotation Yrotation Zrotation
								End Site
								{
									OFFSET 0.000000 14.885353 0.000000
								}
							}
						}
					}
				}
				JOINT Backpack
				{
					OFFSET 0.000000 -2.471497 36.677502
					CHANNELS 3 Xrotation Yrotation Zrotation
					End Site
					{
						OFFSET 0.000000 20.427315 0.000000
					}
				}
				JOINT Hood
				{
					OFFSET 0.000000 18.754097 -10.431000
					CHANNELS 3 Xrotation Yrotation Zrotation
					JOINT Hood1
					{
						OFFSET 0.000000 -5.011002 -7.685901
						CHANNELS 3 Xrotation Yrotation Zrotation
						End Site
						{
							OFFSET 0.000000 9.175140 0.000000
						}
					}
				}
				JOINT LHoodieString
				{
					OFFSET 5.250500 16.397697 3.089900
					CHANNELS 3 Xrotation Yrotation Zrotation
					JOINT LHoodieString1
					{
						OFFSET 0.257700 -6.364304 3.694600
						CHANNELS 3 Xrotation Yrotation Zrotation
						JOINT LHoodieString2
						{
							OFFSET 0.000000 -9.643799 2.679100
							CHANNELS 3 Xrotation Yrotation Zrotation
							End Site
							{
								OFFSET 0.000000 10.009018 0.000000
							}
						}
					}
				}
				JOINT RHoodieString
				{
					OFFSET -5.250500 16.397697 3.089900
					CHANNELS 3 Xrotation Yrotation Zrotation
					JOINT RHoodieString1
					{
						OFFSET -0.257700 -6.364304 3.694600
						CHANNELS 3 Xrotation Yrotation Zrotation
						JOINT RHoodieString2
						{
							OFFSET 0.000000 -9.643799 2.679100
							CHANNELS 3 Xrotation Yrotation Zrotation
							End Site
							{
								OFFSET 0.000000 10.009018 0.000000
							}
						}
					}
				}
			}
			JOINT LBackpack_Strap
			{
				OFFSET 15.223200 -7.719803 -6.610900
				CHANNELS 3 Xrotation Yrotation Zrotation
				End Site
				{
					OFFSET 0.000000 16.040596 0.000000
				}
			}
			JOINT RBackpack_Strap
			{
				OFFSET -15.223000 -7.719803 -6.610900
				CHANNELS 3 Xrotation Yrotation Zrotation
				End Site
				{
					OFFSET 0.000000 16.040596 0.000000
				}
			}
		}
	}
	JOINT BoyFacialAnim_Joint
	{
		OFFSET 1.000000 -82.208099 -1.550900
		CHANNELS 3 Xrotation Yrotation Zrotation
		End Site
		{
			OFFSET 0.000000 30.012791 0.000000
		}
	}
}
MOTION
Frames: 4
Frame Time: 0.033333
-0.000664 75.363274 1.615939 -8.585486 -13.075899 1.240467 -0.000001 -0.000000 -0.000000 -8.748954 1.640137 1.687948 45.362896 8.938205 4.798493 -25.224819 10.657644 -12.936500 -0.000000 -0.000000 0.000000 -0.000000 -0.000000 0.000000 -0.000001 0.000000 0.000001 -12.845064 -1.322799 -9.649814 48.698610 -4.718389 -7.262921 -26.684227 -3.917086 14.009607 -0.000000 0.000002 0.000000 -0.000000 0.000002 0.000000 -0.000004 -0.000000 -0.000000 -0.763616 1.974396 -3.699761 8.737514 0.082709 -0.966352 8.741235 0.148173 -0.949498 -1.671232 1.683762 0.533474 -18.043922 10.852435 -4.668319 0.000000 0.000000 -0.000001 0.000000 0.000000 -0.000001 0.000000 0.000000 -0.000001 0.963206 -5.156258 13.308075 71.220712 -35.969217 -48.794100 -0.000045 -107.723387 -0.000052 4.158455 -3.992273 52.436155 -3.091784 17.377751 12.080257 3.939058 7.948694 0.746807 -0.000003 0.000002 -0.000001 0.003934 -0.233046 1.931432 0.205068 1.671243 -13.990937 -0.000006 -0.000001 -0.000002 0.001705 -0.153113 1.268886 0.222125 1.738177 -14.563755 0.000003 0.000000 0.000000 0.000192 -0.050684 0.420306 0.248129 1.835310 -15.397867 0.000002 -0.000001 -0.000002 -0.000488 4.084201 0.263128 0.272955 -2.130595 -16.671505 -0.000001 -0.000003 0.000001 -0.000000 -0.000001 -0.000001 0.762440 5.560950 0.561337 70.628944 0.849828 58.168323 0.000002 124.661143 -0.000000 18.267327 -6.183953 -4.491702 -2.620289 -23.323380 -9.850523 4.637202 -8.634125 -0.225400 0.000004 -0.000000 0.000001 0.004799 -0.258793 2.123854 0.040471 -0.750599 6.171607 -0.000002 0.000000 0.000005 0.011952 -0.408199 3.351488 0.057823 -0.896689 7.378768 0.000002 0.000000 0.000001 0.025564 -0.596839 4.903580 0.083988 -1.079674 8.896124 0.000000 0.000001 0.000001 0.040665 -0.752391 6.186090 0.107714 -1.221566 10.077115 -0.000001 -0.000001 -0.000002 0.000001 -0.000001 -0.000001 -0.000000 -0.000001 -0.000000 -0.000000 -0.000001 -0.000000 -0.000000 -0.000001 -0.000000 -0.000000 -0.000001 -0.000000 -0.000000 -0.000001 -0.000000 -0.000001 -0.000001 -0.000000 -0.000000 -0.000001 -0.000000 -0.000000 -0.000001 -0.000000 -0.000001 -0.000001 -0.000000 -0.000000 0.000000 0.000000 -0.000000 0.000000 0.000000 -0.000001 -0.000000 -0.000000 
0.141329 74.423988 1.288285 -10.914208 -12.819542 -0.092373 0.000001 0.000001 0.000000 -8.711333 2.535027 3.079096 49.373286 9.466263 5.213161 -27.140607 9.342348 -13.772031 -0.000000 0.000000 -0.000000 -0.000000 0.000000 0.000000 0.000001 -0.000000 0.000000 -12.008900 -1.269979 -8.530292 51.543773 -5.311737 -7.847859 -27.963884 -4.361776 14.542748 -0.000000 -0.000000 0.000000 -0.000000 -0.000000 0.000000 -0.000001 -0.000002 0.000000 1.418647 2.267189 -3.313228 9.361109 0.185289 -0.380527 9.361125 0.251904 -0.356786 -2.373687 1.631084 0.349573 -19.232617 10.411475 -4.613303 -0.000001 -0.000000 -0.000000 -0.000001 -0.000000 -0.000000 -0.000001 -0.000000 -0.000000 0.912050 -4.822466 13.060173 69.779637 -36.285394 -47.249790 -0.000039 -107.708388 -0.000053 6.156850 -4.900433 52.814380 -3.091784 17.377748 12.080260 3.939059 7.948695 0.746811 0.000001 0.000002 -0.000000 0.003684 -0.226006 1.873218 0.205746 1.673810 -14.013012 0.000003 -0.000001 -0.000004 0.001536 -0.146017 1.210115 0.222811 1.740782 -14.586210 0.000003 0.000001 -0.000001 0.000130 -0.043480 0.360412 0.248844 1.837849 -15.419873 -0.000003 0.000000 -0.000002 0.003884 4.091542 0.201810 0.273669 -2.128190 -16.692286 0.000001 0.000001 -0.000002 0.000001 0.000001 0.000001 0.770606 5.904864 0.947403 72.993836 -4.342297 60.701838 0.000050 129.883697 -0.000037 18.497986 -6.154172 -1.841740 -2.620297 -23.323377 -9.850507 4.637193 -8.634127 -0.225404 0.000003 0.000001 -0.000002 0.005928 -0.287443 2.359521 0.042023 -0.764905 6.289398 -0.000002 0.000001 0.000002 0.013280 -0.430241 3.532712 0.059283 -0.907980 7.472359 0.000003 -0.000001 0.000001 0.026768 -0.610810 5.018759 0.085116 -1.086825 8.955580 0.000000 -0.000003 0.000007 0.041503 -0.759972 6.248826 0.108381 -1.225336 10.108512 0.000004 -0.000001 0.000000 -0.000000 0.000001 -0.000000 0.000001 0.000000 0.000000 0.000001 0.000000 0.000000 0.000001 0.000000 0.000000 0.000001 0.000000 0.000000 0.000001 0.000000 0.000000 0.000000 0.000000 0.000000 0.000001 0.000000 0.000000 0.000001 0.000000 0.000000 0.000000 0.000000 0.000000 0.000000 -0.000001 -0.000000 0.000000 -0.000001 -0.000000 0.000001 0.000001 0.000000 
0.402861 73.657028 0.864668 -14.067550 -12.985481 -1.673614 0.000000 -0.000000 -0.000000 -7.552113 4.747816 4.737264 52.372914 9.673062 6.074175 -28.695906 7.662786 -14.489988 -0.000000 -0.000000 -0.000000 -0.000000 -0.000000 -0.000000 0.000001 0.000000 0.000001 -10.294264 -1.859087 -7.243686 53.503450 -5.308280 -9.381322 -28.644446 -4.817269 15.182088 -0.000000 -0.000002 -0.000000 -0.000000 -0.000002 -0.000000 0.000001 -0.000000 0.000000 4.561871 2.162234 -3.324719 10.131397 0.234287 0.288491 10.128311 0.314776 0.309969 -3.119911 1.459468 0.555153 -20.832931 9.761674 -4.394318 0.000000 -0.000000 0.000000 0.000000 -0.000000 0.000000 0.000000 -0.000000 0.000000 0.873809 -4.563618 13.241164 67.921655 -36.686698 -45.420567 -0.000040 -107.346142 -0.000053 7.934491 -6.483683 53.468241 -3.091777 17.377748 12.080257 3.939057 7.948692 0.746805 0.000003 0.000001 -0.000001 0.003694 -0.225926 1.872434 0.205680 1.673630 -14.011483 -0.000004 -0.000001 -0.000004 0.001517 -0.145119 1.202665 0.222849 1.740947 -14.587711 0.000004 0.000000 0.000000 0.000119 -0.041656 0.345204 0.249022 1.838489 -15.425291 0.000001 0.000001 -0.000002 0.005431 4.094147 0.179993 0.273954 -2.127231 -16.700501 -0.000003 -0.000001 0.000001 0.000000 0.000002 -0.000001 0.778391 6.087531 1.324963 73.910952 -10.129340 63.852447 0.000021 133.973396 -0.000011 20.207101 -6.013259 3.021319 -2.620291 -23.323383 -9.850502 4.637200 -8.634127 -0.225402 -0.000000 0.000000 -0.000001 0.012626 -0.419900 3.447572 0.049602 -0.830752 6.833538 0.000000 -0.000000 0.000004 0.019271 -0.518452 4.258217 0.065376 -0.953216 7.846892 0.000001 -0.000000 0.000003 0.029857 -0.644950 5.299927 0.087890 -1.104289 9.100752 -0.000001 -0.000001 0.000000 0.040496 -0.750926 6.174040 0.107577 -1.220846 10.071087 -0.000003 0.000001 -0.000001 0.000000 -0.000002 -0.000001 -0.000000 -0.000000 -0.000000 -0.000000 -0.000000 -0.000000 -0.000000 -0.000000 -0.000000 -0.000000 -0.000000 -0.000000 -0.000000 -0.000000 -0.000000 -0.000000 0.000001 -0.000000 -0.000000 -0.000000 -0.000000 -0.000000 -0.000000 -0.000000 -0.000000 0.000001 -0.000000 0.000000 -0.000000 -0.000000 0.000000 -0.000000 -0.000000 0.000000 -0.000000 -0.000000 
0.767420 73.020264 0.277445 -17.746602 -14.089721 -3.525190 0.000001 -0.000000 0.000000 -5.594152 7.196161 6.299541 54.700919 9.541280 6.700345 -29.902353 6.991983 -14.734670 0.000000 -0.000000 -0.000000 0.000000 -0.000000 -0.000000 0.000001 -0.000001 -0.000000 -8.844246 -2.632864 -6.772212 55.554665 -3.927767 -10.075144 -28.917522 -4.618482 14.780213 0.000000 0.000000 0.000000 0.000000 0.000000 0.000000 -0.000002 -0.000002 -0.000000 8.840950 1.784538 -4.025564 11.062390 0.249611 1.175966 11.057069 0.371313 1.183758 -4.048342 1.399379 0.967708 -23.522347 9.916547 -4.037292 0.000000 0.000000 0.000000 0.000000 0.000000 0.000000 0.000000 0.000000 0.000000 0.871743 -4.660137 13.837078 65.546013 -37.357665 -43.466467 0.000004 -106.490681 -0.000006 7.256542 -8.600428 54.329118 -3.091784 17.377748 12.080258 3.939066 7.948697 0.746806 0.000000 0.000000 -0.000001 0.004569 -0.251482 2.084402 0.202595 1.661205 -13.905379 -0.000008 -0.000000 -0.000004 0.001925 -0.163206 1.352505 0.220507 1.731940 -14.510380 0.000004 0.000001 0.000000 0.000180 -0.050510 0.418703 0.247787 1.834064 -15.387224 -0.000003 -0.000001 0.000003 0.004512 4.092611 0.192810 0.273736 -2.127992 -16.694070 -0.000004 -0.000001 -0.000000 -0.000000 -0.000001 -0.000002 0.790333 6.082763 1.723095 69.614955 -15.497773 66.101280 -0.000024 135.123572 0.000009 23.438680 -5.019560 8.521033 -2.620296 -23.323385 -9.850494 4.637196 -8.634127 -0.225398 -0.000003 0.000002 0.000004 0.068648 -0.976604 8.040789 0.088454 -1.107874 9.130439 -0.000001 -0.000002 0.000005 0.063417 -0.938852 7.728059 0.098558 -1.168905 9.638244 0.000001 0.000000 0.000005 0.058210 -0.899660 7.403396 0.110054 -1.234712 10.186759 -0.000000 0.000000 0.000004 0.054921 -0.873982 7.191101 0.118679 -1.281804 10.579739 -0.000001 0.000003 -0.000001 -0.000000 0.000003 -0.000002 0.000001 -0.000000 -0.000000 0.000001 -0.000000 -0.000000 0.000001 -0.000000 -0.000000 0.000001 -0.000000 -0.000000 0.000001 -0.000000 -0.000000 0.000001 -0.000000 -0.000000 0.000001 -0.000000 -0.000000 0.000001 -0.000000 -0.000000 0.000001 -0.000000 -0.000000 -0.000000 0.000000 0.000000 -0.000000 0.000000 0.000000 0.000001 -0.000000 0.000000 
